<mxfile host="app.diagrams.net" modified="2023-10-13T11:40:27.866Z" agent="Mozilla/5.0 (Windows NT 10.0; Win64; x64) AppleWebKit/537.36 (KHTML, like Gecko) Chrome/117.0.0.0 Safari/537.36 Edg/117.0.2045.60" etag="_vrYbYCwUFSkvHCP7hvw" version="22.0.4" type="github">
  <diagram name="第 1 页" id="z8fZ_od0YhaCob6ioQBM">
    <mxGraphModel dx="487" dy="327" grid="1" gridSize="10" guides="1" tooltips="1" connect="1" arrows="1" fold="1" page="1" pageScale="1" pageWidth="827" pageHeight="1169" math="0" shadow="0">
      <root>
        <mxCell id="0" />
        <mxCell id="1" parent="0" />
        <mxCell id="6PNAFwaQ8hH1nXqCsA9Z-1" value="" style="whiteSpace=wrap;html=1;aspect=fixed;fontFamily=宋体;fontSize=10;" vertex="1" parent="1">
          <mxGeometry x="150" y="120" width="170" height="170" as="geometry" />
        </mxCell>
        <mxCell id="6PNAFwaQ8hH1nXqCsA9Z-2" value="" style="whiteSpace=wrap;html=1;aspect=fixed;fontFamily=宋体;fontSize=10;" vertex="1" parent="1">
          <mxGeometry x="320" y="120" width="170" height="170" as="geometry" />
        </mxCell>
        <mxCell id="6PNAFwaQ8hH1nXqCsA9Z-3" value="LAN" style="rounded=0;whiteSpace=wrap;html=1;fontFamily=宋体;fontSize=10;" vertex="1" parent="1">
          <mxGeometry x="205" y="300" width="60" height="30" as="geometry" />
        </mxCell>
        <mxCell id="6PNAFwaQ8hH1nXqCsA9Z-4" value="LAN" style="rounded=0;whiteSpace=wrap;html=1;fontFamily=宋体;fontSize=10;" vertex="1" parent="1">
          <mxGeometry x="380" y="300" width="60" height="30" as="geometry" />
        </mxCell>
        <mxCell id="6PNAFwaQ8hH1nXqCsA9Z-6" value="系统2" style="rounded=0;whiteSpace=wrap;html=1;fontFamily=宋体;fontSize=10;strokeColor=none;" vertex="1" parent="1">
          <mxGeometry x="330" y="130" width="40" height="30" as="geometry" />
        </mxCell>
        <mxCell id="6PNAFwaQ8hH1nXqCsA9Z-5" value="系统1" style="rounded=0;whiteSpace=wrap;html=1;fontFamily=宋体;fontSize=10;strokeColor=none;" vertex="1" parent="1">
          <mxGeometry x="160" y="135" width="50" height="20" as="geometry" />
        </mxCell>
        <mxCell id="6PNAFwaQ8hH1nXqCsA9Z-7" value="" style="endArrow=classic;startArrow=classic;html=1;rounded=0;fontFamily=宋体;fontSize=10;" edge="1" parent="1">
          <mxGeometry width="50" height="50" relative="1" as="geometry">
            <mxPoint x="300" y="270" as="sourcePoint" />
            <mxPoint x="300" y="160" as="targetPoint" />
          </mxGeometry>
        </mxCell>
        <mxCell id="6PNAFwaQ8hH1nXqCsA9Z-8" value="" style="endArrow=none;html=1;rounded=0;fontFamily=宋体;fontSize=10;" edge="1" parent="1">
          <mxGeometry width="50" height="50" relative="1" as="geometry">
            <mxPoint x="180" y="270" as="sourcePoint" />
            <mxPoint x="300" y="270" as="targetPoint" />
          </mxGeometry>
        </mxCell>
        <mxCell id="6PNAFwaQ8hH1nXqCsA9Z-10" value="" style="endArrow=classic;html=1;rounded=0;fontFamily=宋体;fontSize=10;" edge="1" parent="1">
          <mxGeometry width="50" height="50" relative="1" as="geometry">
            <mxPoint x="180" y="270" as="sourcePoint" />
            <mxPoint x="180" y="230" as="targetPoint" />
          </mxGeometry>
        </mxCell>
        <mxCell id="6PNAFwaQ8hH1nXqCsA9Z-11" value="" style="endArrow=classic;html=1;rounded=0;fontFamily=宋体;fontSize=10;" edge="1" parent="1">
          <mxGeometry width="50" height="50" relative="1" as="geometry">
            <mxPoint x="180" y="160" as="sourcePoint" />
            <mxPoint x="180" y="190" as="targetPoint" />
          </mxGeometry>
        </mxCell>
        <mxCell id="6PNAFwaQ8hH1nXqCsA9Z-12" value="" style="endArrow=none;html=1;rounded=0;fontFamily=宋体;fontSize=10;" edge="1" parent="1">
          <mxGeometry width="50" height="50" relative="1" as="geometry">
            <mxPoint x="180" y="230" as="sourcePoint" />
            <mxPoint x="160" y="190" as="targetPoint" />
          </mxGeometry>
        </mxCell>
        <mxCell id="6PNAFwaQ8hH1nXqCsA9Z-14" value="" style="endArrow=classic;startArrow=classic;html=1;rounded=0;fontFamily=宋体;fontSize=10;" edge="1" parent="1">
          <mxGeometry width="50" height="50" relative="1" as="geometry">
            <mxPoint x="474.65999999999997" y="270" as="sourcePoint" />
            <mxPoint x="474.65999999999997" y="160" as="targetPoint" />
          </mxGeometry>
        </mxCell>
        <mxCell id="6PNAFwaQ8hH1nXqCsA9Z-15" value="" style="endArrow=none;html=1;rounded=0;fontFamily=宋体;fontSize=10;" edge="1" parent="1">
          <mxGeometry width="50" height="50" relative="1" as="geometry">
            <mxPoint x="354.65999999999997" y="270" as="sourcePoint" />
            <mxPoint x="474.65999999999997" y="270" as="targetPoint" />
          </mxGeometry>
        </mxCell>
        <mxCell id="6PNAFwaQ8hH1nXqCsA9Z-16" value="" style="endArrow=classic;html=1;rounded=0;fontFamily=宋体;fontSize=10;" edge="1" parent="1">
          <mxGeometry width="50" height="50" relative="1" as="geometry">
            <mxPoint x="354.65999999999997" y="270" as="sourcePoint" />
            <mxPoint x="354.65999999999997" y="230" as="targetPoint" />
          </mxGeometry>
        </mxCell>
        <mxCell id="6PNAFwaQ8hH1nXqCsA9Z-17" value="" style="endArrow=classic;html=1;rounded=0;fontFamily=宋体;fontSize=10;" edge="1" parent="1">
          <mxGeometry width="50" height="50" relative="1" as="geometry">
            <mxPoint x="354.65999999999997" y="160" as="sourcePoint" />
            <mxPoint x="354.65999999999997" y="190.69" as="targetPoint" />
          </mxGeometry>
        </mxCell>
        <mxCell id="6PNAFwaQ8hH1nXqCsA9Z-18" value="" style="endArrow=none;html=1;rounded=0;fontFamily=宋体;fontSize=10;" edge="1" parent="1">
          <mxGeometry width="50" height="50" relative="1" as="geometry">
            <mxPoint x="354.65999999999997" y="230" as="sourcePoint" />
            <mxPoint x="334.65999999999997" y="190" as="targetPoint" />
          </mxGeometry>
        </mxCell>
        <mxCell id="6PNAFwaQ8hH1nXqCsA9Z-21" value="" style="endArrow=none;html=1;rounded=0;fontFamily=宋体;fontSize=10;" edge="1" parent="1">
          <mxGeometry width="50" height="50" relative="1" as="geometry">
            <mxPoint x="334.65999999999997" y="190.69" as="sourcePoint" />
            <mxPoint x="354.65999999999997" y="190.69" as="targetPoint" />
          </mxGeometry>
        </mxCell>
        <mxCell id="6PNAFwaQ8hH1nXqCsA9Z-22" value="" style="endArrow=classic;html=1;rounded=0;startArrow=classic;startFill=1;fontFamily=宋体;fontSize=10;" edge="1" parent="1" target="6PNAFwaQ8hH1nXqCsA9Z-3">
          <mxGeometry width="50" height="50" relative="1" as="geometry">
            <mxPoint x="235" y="270" as="sourcePoint" />
            <mxPoint x="490" y="200" as="targetPoint" />
          </mxGeometry>
        </mxCell>
        <mxCell id="6PNAFwaQ8hH1nXqCsA9Z-24" value="" style="endArrow=classic;html=1;rounded=0;startArrow=classic;startFill=1;entryX=0.5;entryY=0;entryDx=0;entryDy=0;fontFamily=宋体;fontSize=10;" edge="1" parent="1" target="6PNAFwaQ8hH1nXqCsA9Z-4">
          <mxGeometry width="50" height="50" relative="1" as="geometry">
            <mxPoint x="410" y="270" as="sourcePoint" />
            <mxPoint x="310" y="400" as="targetPoint" />
          </mxGeometry>
        </mxCell>
        <mxCell id="6PNAFwaQ8hH1nXqCsA9Z-26" value="受控端口未认证" style="rounded=0;whiteSpace=wrap;html=1;fontFamily=宋体;fontSize=10;strokeColor=none;" vertex="1" parent="1">
          <mxGeometry x="190" y="195" width="60" height="35" as="geometry" />
        </mxCell>
        <mxCell id="6PNAFwaQ8hH1nXqCsA9Z-27" value="受控端口认证成功" style="rounded=0;whiteSpace=wrap;html=1;fontFamily=宋体;fontSize=10;strokeColor=none;" vertex="1" parent="1">
          <mxGeometry x="360" y="195" width="60" height="35" as="geometry" />
        </mxCell>
        <mxCell id="6PNAFwaQ8hH1nXqCsA9Z-28" value="非受控端口" style="rounded=0;whiteSpace=wrap;html=1;fontFamily=宋体;fontSize=10;strokeColor=none;" vertex="1" parent="1">
          <mxGeometry x="220" y="150" width="70" height="35" as="geometry" />
        </mxCell>
        <mxCell id="6PNAFwaQ8hH1nXqCsA9Z-51" value="非受控端口" style="rounded=0;whiteSpace=wrap;html=1;fontFamily=宋体;fontSize=10;strokeColor=none;" vertex="1" parent="1">
          <mxGeometry x="400" y="150" width="70" height="35" as="geometry" />
        </mxCell>
      </root>
    </mxGraphModel>
  </diagram>
</mxfile>
